<?xml version="1.0" standalone="no"?>
<!DOCTYPE svg PUBLIC "-//W3C//DTD SVG 20010904//EN"
 "http://www.w3.org/TR/2001/REC-SVG-20010904/DTD/svg10.dtd">
<svg version="1.0" xmlns="http://www.w3.org/2000/svg"
 width="96.000000pt" height="96.000000pt" viewBox="0 0 96.000000 96.000000"
 preserveAspectRatio="xMidYMid meet">
<metadata>
Created by potrace 1.14, written by Peter Selinger 2001-2017
</metadata>
<g transform="translate(0.000000,96.000000) scale(0.100000,-0.100000)"
fill="#000000" stroke="none">
<path d="M207 834 c-4 -4 -7 -22 -7 -40 0 -31 -2 -33 -37 -36 -36 -3 -38 -5
-41 -40 -3 -35 -5 -37 -40 -40 l-37 -3 0 -75 0 -75 37 -3 c35 -3 37 -5 40 -40
3 -35 5 -37 40 -40 35 -3 37 -5 40 -40 3 -35 5 -37 40 -40 35 -3 37 -5 40 -40
3 -35 5 -37 40 -40 35 -3 37 -5 40 -40 3 -35 5 -37 40 -40 35 -3 37 -5 40 -40
3 -35 5 -37 38 -37 33 0 35 2 38 37 3 35 5 37 40 40 35 3 37 5 40 40 3 35 5
37 40 40 35 3 37 5 40 40 3 35 5 37 40 40 35 3 37 5 40 40 3 35 5 37 40 40 35
3 37 5 40 40 3 35 5 37 40 40 l37 3 0 75 0 75 -37 3 c-35 3 -37 5 -40 40 -3
35 -5 37 -40 40 -35 3 -37 5 -40 40 l-3 37 -75 0 -75 0 -3 -37 c-3 -35 -5 -37
-40 -40 -35 -3 -37 -5 -40 -40 -3 -37 -4 -38 -42 -38 -38 0 -39 1 -42 38 -3
35 -5 37 -40 40 -35 3 -37 5 -40 40 l-3 37 -70 3 c-39 1 -74 0 -78 -4z"/>
</g>
</svg>
